<svg xmlns="http://www.w3.org/2000/svg" xmlns:xlink="http://www.w3.org/1999/xlink" version="1.1" width="256" height="256" viewBox="0 0 256 256" xml:space="preserve">
<g style="stroke: none; stroke-width: 0; stroke-dasharray: none; stroke-linecap: butt; stroke-linejoin: miter; stroke-miterlimit: 10; fill: none; fill-rule: nonzero; opacity: 1;" transform="translate(1.4065934065934016 1.4065934065934016) scale(2.81 2.81)">
	<path d="M 88.5 28.694 c 0.828 0 1.5 -0.671 1.5 -1.5 V 1.5 c 0 -0.194 -0.04 -0.377 -0.107 -0.547 c -0.003 -0.008 -0.004 -0.015 -0.007 -0.023 c -0.152 -0.37 -0.447 -0.664 -0.816 -0.816 c -0.007 -0.003 -0.015 -0.004 -0.023 -0.007 C 88.877 0.04 88.694 0 88.5 0 H 62.806 c -0.828 0 -1.5 0.671 -1.5 1.5 s 0.672 1.5 1.5 1.5 h 22.073 L 45 42.879 L 5.121 3 h 22.073 c 0.828 0 1.5 -0.671 1.5 -1.5 S 28.022 0 27.194 0 H 1.5 C 1.306 0 1.123 0.04 0.953 0.107 C 0.945 0.109 0.938 0.111 0.93 0.114 C 0.561 0.266 0.266 0.56 0.114 0.93 C 0.111 0.938 0.109 0.945 0.107 0.953 C 0.04 1.123 0 1.306 0 1.5 v 25.694 c 0 0.829 0.672 1.5 1.5 1.5 s 1.5 -0.671 1.5 -1.5 V 5.121 L 42.879 45 L 3 84.879 V 62.806 c 0 -0.828 -0.671 -1.5 -1.5 -1.5 S 0 61.978 0 62.806 V 88.5 c 0 0.194 0.04 0.377 0.107 0.547 c 0.003 0.008 0.004 0.015 0.007 0.023 c 0.152 0.37 0.447 0.664 0.817 0.817 c 0.007 0.003 0.015 0.004 0.023 0.007 C 1.123 89.96 1.306 90 1.5 90 h 25.694 c 0.829 0 1.5 -0.672 1.5 -1.5 s -0.671 -1.5 -1.5 -1.5 H 5.121 L 45 47.121 L 84.879 87 H 62.806 c -0.829 0 -1.5 0.672 -1.5 1.5 s 0.671 1.5 1.5 1.5 H 88.5 c 0.194 0 0.377 -0.04 0.547 -0.107 c 0.008 -0.003 0.015 -0.004 0.023 -0.007 c 0.37 -0.152 0.664 -0.447 0.817 -0.817 c 0.003 -0.007 0.004 -0.015 0.007 -0.023 C 89.96 88.877 90 88.694 90 88.5 V 62.806 c 0 -0.828 -0.671 -1.5 -1.5 -1.5 s -1.5 0.672 -1.5 1.5 v 22.073 L 47.121 45 L 87 5.121 v 22.073 C 87 28.023 87.672 28.694 88.5 28.694 z" style="stroke: none; stroke-width: 1; stroke-dasharray: none; stroke-linecap: butt; stroke-linejoin: miter; stroke-miterlimit: 10; fill: rgb(29,29,27); fill-rule: nonzero; opacity: 1;" transform=" matrix(1 0 0 1 0 0) " stroke-linecap="round"/>
</g>
</svg>