<svg xmlns="http://www.w3.org/2000/svg" xmlns:xlink="http://www.w3.org/1999/xlink" version="1.1" width="256" height="256" viewBox="0 0 256 256" xml:space="preserve">
<g style="stroke: none; stroke-width: 0; stroke-dasharray: none; stroke-linecap: butt; stroke-linejoin: miter; stroke-miterlimit: 10; fill: none; fill-rule: nonzero; opacity: 1;" transform="translate(1.4065934065934016 1.4065934065934016) scale(2.81 2.81)">
	<path d="M 87.709 61.246 v -43.32 V 2 c 0 -0.15 -0.02 -0.296 -0.051 -0.437 c -0.009 -0.04 -0.025 -0.077 -0.036 -0.116 c -0.029 -0.1 -0.062 -0.198 -0.106 -0.291 c -0.021 -0.044 -0.046 -0.086 -0.07 -0.128 c -0.047 -0.083 -0.097 -0.162 -0.154 -0.237 c -0.031 -0.041 -0.064 -0.08 -0.098 -0.119 c -0.065 -0.073 -0.135 -0.138 -0.21 -0.201 c -0.025 -0.021 -0.044 -0.047 -0.07 -0.067 c -0.012 -0.009 -0.026 -0.014 -0.039 -0.023 c -0.096 -0.069 -0.198 -0.128 -0.305 -0.179 c -0.023 -0.011 -0.044 -0.026 -0.067 -0.036 c -0.131 -0.057 -0.269 -0.099 -0.412 -0.127 c -0.039 -0.008 -0.078 -0.007 -0.117 -0.012 C 85.886 0.016 85.8 0 85.709 0 c -0.017 0 -0.032 0.005 -0.049 0.005 c -0.053 0.001 -0.104 0.01 -0.157 0.016 c -0.096 0.01 -0.191 0.023 -0.282 0.046 c -0.02 0.005 -0.041 0.004 -0.062 0.01 L 29.42 16.003 c -0.02 0.006 -0.035 0.02 -0.055 0.026 c -0.188 0.06 -0.367 0.139 -0.526 0.249 c -0.01 0.007 -0.019 0.016 -0.029 0.024 c -0.148 0.106 -0.278 0.234 -0.392 0.376 c -0.021 0.026 -0.043 0.049 -0.063 0.076 c -0.108 0.149 -0.194 0.312 -0.258 0.488 c -0.013 0.035 -0.022 0.069 -0.032 0.105 c -0.056 0.185 -0.096 0.377 -0.096 0.58 v 15.926 v 35.215 c -0.513 -0.427 -1.056 -0.833 -1.657 -1.195 c -3.033 -1.828 -6.828 -2.572 -10.683 -2.09 c -3.856 0.48 -7.352 2.132 -9.843 4.648 c -2.618 2.645 -3.832 5.923 -3.42 9.229 c 0.412 3.307 2.395 6.186 5.581 8.107 C 10.377 89.232 13.296 90 16.344 90 c 0.756 -0.001 1.52 -0.048 2.287 -0.144 c 3.856 -0.48 7.352 -2.132 9.843 -4.648 c 2.303 -2.327 3.517 -5.144 3.496 -8.04 V 35.36 l 51.74 -14.783 v 32.564 c -0.513 -0.427 -1.056 -0.833 -1.656 -1.195 c -3.033 -1.828 -6.83 -2.571 -10.683 -2.09 c -8.141 1.015 -14.091 7.24 -13.263 13.878 c 0.75 6.018 6.815 10.339 14.007 10.339 c 0.742 0 1.497 -0.047 2.258 -0.142 c 3.856 -0.48 7.352 -2.132 9.844 -4.648 C 86.516 66.957 87.731 64.141 87.709 61.246 z" style="stroke: none; stroke-width: 1; stroke-dasharray: none; stroke-linecap: butt; stroke-linejoin: miter; stroke-miterlimit: 10; fill: rgb(0,0,0); fill-rule: nonzero; opacity: 1;" transform=" matrix(1 0 0 1 0 0) " stroke-linecap="round"/>
</g>
</svg>